<?xml version="1.0" standalone="no"?>
<!DOCTYPE svg PUBLIC "-//W3C//DTD SVG 20010904//EN"
 "http://www.w3.org/TR/2001/REC-SVG-20010904/DTD/svg10.dtd">
<svg version="1.0" xmlns="http://www.w3.org/2000/svg"
 width="260.000000pt" height="260.000000pt" viewBox="0 0 260.000000 260.000000"
 preserveAspectRatio="xMidYMid meet">
<metadata>
Created by potrace 1.11, written by Peter Selinger 2001-2013
</metadata>
<g transform="translate(0.000000,260.000000) scale(0.100000,-0.100000)"
fill="#000000" stroke="none">
<path d="M1789 2540 c-57 -16 -136 -81 -142 -118 -1 -9 -6 -22 -9 -28 -17 -27
-6 -164 13 -164 5 0 9 -5 9 -12 0 -6 7 -19 15 -28 14 -16 13 -23 -16 -76 -18
-33 -35 -61 -38 -64 -3 -3 -15 -23 -27 -45 -22 -42 -127 -225 -150 -261 -13
-21 -13 -21 -66 -3 -83 28 -180 20 -264 -21 l-66 -32 -33 38 c-35 40 -35 32 0
119 5 11 9 22 9 25 1 3 5 11 9 18 5 6 6 12 2 12 -3 0 2 15 12 33 17 31 23 50
25 74 1 6 13 17 27 24 51 26 84 79 71 114 -4 11 -5 24 -3 28 3 5 -11 23 -30
41 -45 41 -91 45 -138 13 -33 -22 -64 -90 -50 -112 3 -5 6 -12 7 -15 0 -3 4
-12 8 -21 4 -9 -2 -40 -14 -70 -12 -30 -23 -65 -26 -79 -3 -13 -10 -27 -15
-31 -6 -3 -11 -10 -12 -15 -3 -14 -18 -6 -38 20 -10 12 -30 37 -46 54 -86 95
-118 137 -115 151 2 9 4 22 4 29 1 6 6 12 11 12 5 0 7 6 4 13 -3 8 -1 20 3 28
5 8 4 19 -2 26 -7 9 -7 13 0 13 15 0 -21 93 -50 129 -56 71 -171 95 -258 53
-47 -22 -100 -75 -100 -100 0 -7 -4 -12 -8 -12 -4 0 -9 -12 -10 -27 -1 -16 -4
-38 -7 -51 -5 -28 20 -110 43 -137 58 -70 145 -100 228 -79 49 12 49 12 77
-19 16 -18 38 -42 49 -55 21 -23 19 -34 -8 -38 -9 -1 -59 -12 -112 -23 -54
-11 -108 -22 -122 -25 -14 -2 -37 -7 -51 -11 -17 -4 -37 0 -60 13 -73 40 -146
-1 -163 -91 -5 -31 28 -86 64 -104 49 -25 91 -16 129 26 37 40 43 42 224 77
12 2 65 13 117 23 l95 20 40 -44 c22 -24 56 -63 74 -86 19 -23 41 -48 48 -55
12 -11 10 -20 -9 -56 -12 -24 -21 -47 -20 -52 2 -4 -1 -13 -7 -20 -5 -6 -8
-51 -7 -100 l2 -88 -126 -60 c-69 -34 -181 -87 -249 -119 l-123 -59 -32 33
c-105 112 -294 79 -353 -60 -19 -48 -23 -127 -7 -158 7 -14 10 -25 6 -25 -4 0
-2 -4 3 -8 6 -4 15 -16 21 -27 14 -26 82 -74 114 -81 51 -11 72 -11 114 -2 84
18 161 111 165 199 1 10 32 30 84 54 45 21 132 63 192 93 61 29 110 53 110 52
0 -1 30 12 66 30 l66 33 47 -47 c49 -48 118 -89 171 -100 29 -6 30 -8 31 -65
l1 -59 -58 -26 c-32 -14 -61 -26 -64 -26 -4 0 -27 -10 -53 -21 -49 -23 -70
-25 -138 -16 -46 6 -104 -21 -104 -48 0 -8 -5 -15 -11 -15 -6 0 -9 -7 -5 -15
3 -8 1 -15 -4 -15 -12 0 3 -51 25 -84 10 -15 34 -31 57 -38 35 -10 45 -9 77 8
20 10 43 33 51 51 8 17 22 34 30 37 8 2 58 22 110 44 52 22 96 39 97 38 1 -1
5 -47 8 -101 3 -55 7 -121 9 -147 4 -45 3 -47 -40 -78 -55 -39 -86 -97 -89
-167 -1 -29 1 -53 5 -53 4 0 7 -6 7 -12 1 -25 8 -43 23 -55 8 -7 11 -13 7 -13
-14 0 47 -51 85 -71 71 -36 206 -14 240 40 7 12 19 21 27 21 8 0 11 3 8 7 -4
3 1 18 10 32 18 28 30 171 14 171 -5 0 -11 10 -15 23 -9 39 -69 92 -125 111
-30 11 -36 18 -37 42 -1 16 -3 29 -4 29 -1 0 -3 31 -5 68 -2 37 -7 72 -10 77
-4 6 0 10 7 10 8 0 9 3 3 8 -5 4 -11 25 -11 47 -1 22 -5 88 -8 147 l-6 106 53
17 c69 22 144 78 182 137 17 26 35 49 41 52 7 2 31 -1 55 -8 46 -14 57 -31 54
-86 -1 -19 0 -39 3 -44 3 -5 7 -39 8 -75 2 -56 0 -68 -22 -94 -13 -16 -22 -33
-18 -38 3 -5 1 -9 -4 -9 -13 0 10 -65 34 -95 27 -33 96 -42 133 -18 43 28 46
33 57 91 5 25 -8 56 -39 90 -11 12 -22 37 -23 55 -1 17 -3 32 -4 32 0 0 -2 30
-4 68 -3 63 0 72 26 68 40 -5 75 -14 92 -23 11 -6 22 -10 24 -9 1 2 42 -7 90
-19 79 -19 88 -24 90 -46 3 -46 5 -54 14 -54 5 0 7 -4 4 -9 -7 -10 33 -65 65
-89 110 -84 267 -43 332 86 22 41 15 139 -12 192 -63 127 -246 151 -343 46
-28 -31 -33 -33 -67 -24 -20 5 -45 11 -56 13 -11 3 -81 21 -155 40 -74 19
-174 45 -222 57 l-87 22 1 40 c1 60 -27 144 -67 202 l-36 51 42 72 c22 39 44
71 49 71 4 0 36 -9 71 -21 35 -11 75 -23 88 -25 39 -8 79 -33 86 -53 14 -45
95 -71 146 -45 46 23 60 49 61 113 0 49 -48 95 -99 94 -55 -2 -73 -5 -73 -14
0 -4 -10 -6 -22 -4 -35 7 -182 57 -191 65 -8 7 29 79 48 92 5 4 6 8 1 8 -5 0
-2 8 7 18 10 10 14 22 10 25 -3 4 -2 7 4 7 6 0 16 12 22 28 10 24 16 27 51 24
116 -11 233 93 233 208 -1 149 -135 257 -274 220z"/>
</g>
</svg>
